<?xml version="1.0" encoding="utf-8"?>
<!-- Generator: Adobe Illustrator 26.4.1, SVG Export Plug-In . SVG Version: 6.00 Build 0)  -->
<svg version="1.1" id="Layer_1" xmlns="http://www.w3.org/2000/svg" xmlns:xlink="http://www.w3.org/1999/xlink" x="0px" y="0px"
	 viewBox="0 0 89 89" style="enable-background:new 0 0 89 89;" xml:space="preserve">
<style type="text/css">
	.st0{fill:#666666;}
</style>
<g>
	<path class="st0" d="M83.1,73.1c0,5.5-4.4,9.9-9.9,9.9H16.8c-5.5,0-9.9-4.4-9.9-9.9V16.8c0-5.5,4.4-9.9,9.9-9.9h19.4V5H16.8
		C10.3,5,5,10.3,5,16.8v56.4C5,79.7,10.3,85,16.8,85h56.4C79.7,85,85,79.7,85,73.1V49.6h-1.9V73.1z"/>
	<path class="st0" d="M73.2,5H43.9v1.9h29.3c2.4,0,4.6,0.9,6.4,2.3L41.3,43l2.5,2.9l38.1-33.7c0.7,1.4,1.1,2.9,1.1,4.6v25.2H85V16.8
		C85,10.3,79.7,5,73.2,5z"/>
</g>
</svg>
